<mxfile host="app.diagrams.net" modified="2023-11-20T10:35:41.449Z" agent="Mozilla/5.0 (Windows NT 10.0; Win64; x64) AppleWebKit/537.36 (KHTML, like Gecko) Chrome/116.0.0.0 Safari/537.36 OPR/102.0.0.0" version="22.1.3" etag="90Im_aQ1d9-z5qYIETTs" type="github">
  <diagram name="PÃ¡gina-1" id="RJLrpJErkAzs--GI1Qh0">
    <mxGraphModel>
      <root>
        <mxCell id="0" />
        <mxCell id="1" parent="0" />
      </root>
    </mxGraphModel>
  </diagram>
</mxfile>
